<svg width="317" height="374" viewBox="0 0 317 374" fill="none" xmlns="http://www.w3.org/2000/svg">
<path d="M117.128 268.977C125.744 260.361 136.378 255.001 147.508 252.885L151.722 243.997C151.712 243.995 151.702 243.991 151.69 243.989C151.568 243.977 151.444 243.971 151.318 243.973C149.838 243.995 147.986 244.717 146.48 244.973C142.71 245.615 138.94 246.259 135.17 246.901C129.69 247.835 124.212 248.769 118.732 249.703V235.047C118.732 244.385 111.162 251.955 101.822 251.955H21.91C12.572 251.955 5 244.385 5 235.047V272.791C5 282.129 12.57 289.699 21.91 289.699H23.42H58.304C71.368 289.699 84.432 289.697 97.498 289.699C99.642 289.699 101.736 289.577 103.844 289.481C106.688 282.009 111.106 274.997 117.128 268.977V268.977Z" fill="#EBE7F2"/>
<path d="M9.5 129L5.5 257C40.7217 259.209 82.7209 279.696 110 288.5C113.375 289.589 126.438 290.353 129.5 291.5L237 268.056C237 268.056 248.5 166 251.5 161.5C254.5 157 187 144.5 187 144.5C187 144.5 159 134.11 141 138.5C123 142.89 82.5 143 63.5 141.5C44.5 140 9.5 129 9.5 129Z" fill="#EBE7F2"/>
<path d="M237 155.5C237 155.5 250 154.5 274.5 159C299 163.5 312 164 312 164V285H237V155.5Z" fill="#EBE7F2"/>
<path d="M311.958 137.121H237.2C234.438 137.121 232.2 139.359 232.2 142.121V154.159C215.658 139.677 178.446 106.793 159.654 87.7528C142.742 70.6148 136.806 42.0628 134.804 21.1308C133.954 12.2448 128.252 4.75277 119.92 1.57277C111.43 -1.66523 101.996 0.174775 95.3 6.37078C94.968 6.67678 94.68 7.02677 94.442 7.41077C93.22 9.38677 64.762 56.3608 86.25 104.945C87.366 107.471 90.32 108.611 92.844 107.495C95.37 106.379 96.51 103.425 95.394 100.901C77.286 59.9588 99.524 18.6368 102.602 13.2588C106.492 9.97677 111.58 9.09877 116.354 10.9188C121.18 12.7588 124.354 16.9328 124.848 22.0848C127.004 44.6328 133.558 75.5488 152.536 94.7788C174.83 117.369 222.528 159.025 232.2 167.437V262.245L157 285.231C154.276 285.689 160.544 287.507 161 290.231C161.412 292.673 156.602 294.5 159 294.5C159.276 294.5 219.794 274.469 220.074 274.423L232.2 272.385V285.231C232.2 287.993 234.438 290.231 237.2 290.231H311.958C314.72 290.231 316.958 287.993 316.958 285.231V142.123C316.958 139.359 314.72 137.121 311.958 137.121ZM306.958 280.229H242.2V266.473V165.155V147.121H306.958V280.229Z" fill="#846F75"/>
<path d="M101.822 123.413H21.91C9.828 123.413 0 133.241 0 145.323V272.793C0 284.875 9.83 294.703 21.91 294.703H158C160.762 294.703 161.5 292.262 161.5 289.5C161.5 286.738 160.762 284.703 158 284.703H21.91C15.342 284.703 10 279.361 10 272.793V145.323C10 138.757 15.342 133.413 21.91 133.413H101.822C108.388 133.413 113.732 138.755 113.732 145.323V247.851C113.732 250.613 115.97 252.851 118.732 252.851C121.494 252.851 123.732 250.613 123.732 247.851V145.323C123.732 133.243 113.904 123.413 101.822 123.413Z" fill="#846F75"/>
</svg>
